<svg width="1066" height="268" viewBox="0 0 1066 268" fill="none" xmlns="http://www.w3.org/2000/svg">
<g filter="url(#filter0_d_74_11)">
<path d="M441.65 139.19C441.65 152.99 439.503 165.027 435.21 175.3C430.917 185.42 424.86 193.853 417.04 200.6C409.22 207.193 399.867 212.177 388.98 215.55C378.093 218.77 366.133 220.38 353.1 220.38C346.66 220.38 339.53 220.073 331.71 219.46C324.043 219 317.067 218.003 310.78 216.47V61.91C317.067 60.3767 324.043 59.38 331.71 58.92C339.53 58.3067 346.66 58 353.1 58C366.133 58 378.093 59.6867 388.98 63.06C399.867 66.28 409.22 71.2633 417.04 78.01C424.86 84.6033 430.917 93.0367 435.21 103.31C439.503 113.43 441.65 125.39 441.65 139.19ZM354.94 200.83C376.1 200.83 391.893 195.463 402.32 184.73C412.747 173.843 417.96 158.663 417.96 139.19C417.96 119.717 412.747 104.613 402.32 93.88C391.893 82.9933 376.1 77.55 354.94 77.55C348.653 77.55 343.747 77.6267 340.22 77.78C336.847 77.9333 334.47 78.0867 333.09 78.24V200.14C334.47 200.293 336.847 200.447 340.22 200.6C343.747 200.753 348.653 200.83 354.94 200.83ZM494.755 219H473.365V99.4H494.755V219ZM483.945 77.78C480.112 77.78 476.815 76.5533 474.055 74.1C471.448 71.4933 470.145 68.0433 470.145 63.75C470.145 59.4567 471.448 56.0833 474.055 53.63C476.815 51.0233 480.112 49.72 483.945 49.72C487.778 49.72 490.998 51.0233 493.605 53.63C496.365 56.0833 497.745 59.4567 497.745 63.75C497.745 68.0433 496.365 71.4933 493.605 74.1C490.998 76.5533 487.778 77.78 483.945 77.78ZM572.019 203.59C577.079 203.59 581.525 203.513 585.359 203.36C589.345 203.053 592.642 202.593 595.249 201.98V166.33C593.715 165.563 591.185 164.95 587.659 164.49C584.285 163.877 580.145 163.57 575.239 163.57C572.019 163.57 568.569 163.8 564.889 164.26C561.362 164.72 558.065 165.717 554.999 167.25C552.085 168.63 549.632 170.623 547.639 173.23C545.645 175.683 544.649 178.98 544.649 183.12C544.649 190.787 547.102 196.153 552.009 199.22C556.915 202.133 563.585 203.59 572.019 203.59ZM570.179 96.41C578.765 96.41 585.972 97.56 591.799 99.86C597.779 102.007 602.532 105.15 606.059 109.29C609.739 113.277 612.345 118.107 613.879 123.78C615.412 129.3 616.179 135.433 616.179 142.18V216.93C614.339 217.237 611.732 217.697 608.359 218.31C605.139 218.77 601.459 219.23 597.319 219.69C593.179 220.15 588.655 220.533 583.749 220.84C578.995 221.3 574.242 221.53 569.489 221.53C562.742 221.53 556.532 220.84 550.859 219.46C545.185 218.08 540.279 215.933 536.139 213.02C531.999 209.953 528.779 205.967 526.479 201.06C524.179 196.153 523.029 190.25 523.029 183.35C523.029 176.757 524.332 171.083 526.939 166.33C529.699 161.577 533.379 157.743 537.979 154.83C542.579 151.917 547.945 149.77 554.079 148.39C560.212 147.01 566.652 146.32 573.399 146.32C575.545 146.32 577.769 146.473 580.069 146.78C582.369 146.933 584.515 147.24 586.509 147.7C588.655 148.007 590.495 148.313 592.029 148.62C593.562 148.927 594.635 149.157 595.249 149.31V143.33C595.249 139.803 594.865 136.353 594.099 132.98C593.332 129.453 591.952 126.387 589.959 123.78C587.965 121.02 585.205 118.873 581.679 117.34C578.305 115.653 573.859 114.81 568.339 114.81C561.285 114.81 555.075 115.347 549.709 116.42C544.495 117.34 540.585 118.337 537.979 119.41L535.449 101.7C538.209 100.473 542.809 99.3233 549.249 98.25C555.689 97.0233 562.665 96.41 570.179 96.41ZM783.955 139.19C783.955 152.99 781.808 165.027 777.515 175.3C773.221 185.42 767.165 193.853 759.345 200.6C751.525 207.193 742.171 212.177 731.285 215.55C720.398 218.77 708.438 220.38 695.405 220.38C688.965 220.38 681.835 220.073 674.015 219.46C666.348 219 659.371 218.003 653.085 216.47V61.91C659.371 60.3767 666.348 59.38 674.015 58.92C681.835 58.3067 688.965 58 695.405 58C708.438 58 720.398 59.6867 731.285 63.06C742.171 66.28 751.525 71.2633 759.345 78.01C767.165 84.6033 773.221 93.0367 777.515 103.31C781.808 113.43 783.955 125.39 783.955 139.19ZM697.245 200.83C718.405 200.83 734.198 195.463 744.625 184.73C755.051 173.843 760.265 158.663 760.265 139.19C760.265 119.717 755.051 104.613 744.625 93.88C734.198 82.9933 718.405 77.55 697.245 77.55C690.958 77.55 686.051 77.6267 682.525 77.78C679.151 77.9333 676.775 78.0867 675.395 78.24V200.14C676.775 200.293 679.151 200.447 682.525 200.6C686.051 200.753 690.958 200.83 697.245 200.83ZM837.06 219H815.67V99.4H837.06V219ZM826.25 77.78C822.416 77.78 819.12 76.5533 816.36 74.1C813.753 71.4933 812.45 68.0433 812.45 63.75C812.45 59.4567 813.753 56.0833 816.36 53.63C819.12 51.0233 822.416 49.72 826.25 49.72C830.083 49.72 833.303 51.0233 835.91 53.63C838.67 56.0833 840.05 59.4567 840.05 63.75C840.05 68.0433 838.67 71.4933 835.91 74.1C833.303 76.5533 830.083 77.78 826.25 77.78ZM901.673 203.59C910.413 203.59 916.853 202.44 920.993 200.14C925.287 197.84 927.433 194.16 927.433 189.1C927.433 183.887 925.363 179.747 921.223 176.68C917.083 173.613 910.26 170.163 900.753 166.33C896.153 164.49 891.707 162.65 887.413 160.81C883.273 158.817 879.67 156.517 876.603 153.91C873.537 151.303 871.083 148.16 869.243 144.48C867.403 140.8 866.483 136.277 866.483 130.91C866.483 120.33 870.393 111.973 878.213 105.84C886.033 99.5533 896.69 96.41 910.183 96.41C913.557 96.41 916.93 96.64 920.303 97.1C923.677 97.4067 926.82 97.8667 929.733 98.48C932.647 98.94 935.177 99.4767 937.323 100.09C939.623 100.703 941.387 101.24 942.613 101.7L938.703 120.1C936.403 118.873 932.8 117.647 927.893 116.42C922.987 115.04 917.083 114.35 910.183 114.35C904.203 114.35 898.99 115.577 894.543 118.03C890.097 120.33 887.873 124.01 887.873 129.07C887.873 131.677 888.333 133.977 889.253 135.97C890.327 137.963 891.86 139.803 893.853 141.49C896 143.023 898.607 144.48 901.673 145.86C904.74 147.24 908.42 148.697 912.713 150.23C918.387 152.377 923.447 154.523 927.893 156.67C932.34 158.663 936.097 161.04 939.163 163.8C942.383 166.56 944.837 169.933 946.523 173.92C948.21 177.753 949.053 182.507 949.053 188.18C949.053 199.22 944.913 207.577 936.633 213.25C928.507 218.923 916.853 221.76 901.673 221.76C891.093 221.76 882.813 220.84 876.833 219C870.853 217.313 866.79 216.01 864.643 215.09L868.553 196.69C871.007 197.61 874.917 198.99 880.283 200.83C885.65 202.67 892.78 203.59 901.673 203.59ZM1028.47 221.76C1018.81 221.76 1010.3 220.227 1002.94 217.16C995.733 214.093 989.6 209.8 984.54 204.28C979.633 198.76 975.953 192.243 973.5 184.73C971.047 177.063 969.82 168.63 969.82 159.43C969.82 150.23 971.123 141.797 973.73 134.13C976.49 126.463 980.323 119.87 985.23 114.35C990.137 108.677 996.117 104.307 1003.17 101.24C1010.38 98.02 1018.35 96.41 1027.09 96.41C1032.46 96.41 1037.82 96.87 1043.19 97.79C1048.56 98.71 1053.69 100.167 1058.6 102.16L1053.77 120.33C1050.55 118.797 1046.79 117.57 1042.5 116.65C1038.36 115.73 1033.91 115.27 1029.16 115.27C1017.2 115.27 1008 119.027 1001.56 126.54C995.273 134.053 992.13 145.017 992.13 159.43C992.13 165.87 992.82 171.773 994.2 177.14C995.733 182.507 998.033 187.107 1001.1 190.94C1004.32 194.773 1008.38 197.763 1013.29 199.91C1018.2 201.903 1024.18 202.9 1031.23 202.9C1036.9 202.9 1042.04 202.363 1046.64 201.29C1051.24 200.217 1054.84 199.067 1057.45 197.84L1060.44 215.78C1059.21 216.547 1057.45 217.313 1055.15 218.08C1052.85 218.693 1050.24 219.23 1047.33 219.69C1044.42 220.303 1041.27 220.763 1037.9 221.07C1034.68 221.53 1031.54 221.76 1028.47 221.76Z" fill="black"/>
</g>
<g filter="url(#filter1_d_74_11)">
<circle cx="125" cy="123" r="114.5" stroke="#2BD6B7" stroke-width="7" shape-rendering="crispEdges"/>
</g>
<g filter="url(#filter2_d_74_11)">
<circle cx="139" cy="141" r="108.5" stroke="#060606" stroke-width="19" shape-rendering="crispEdges"/>
</g>
<defs>
<filter id="filter0_d_74_11" x="305.779" y="46.72" width="759.66" height="182.04" filterUnits="userSpaceOnUse" color-interpolation-filters="sRGB">
<feFlood flood-opacity="0" result="BackgroundImageFix"/>
<feColorMatrix in="SourceAlpha" type="matrix" values="0 0 0 0 0 0 0 0 0 0 0 0 0 0 0 0 0 0 127 0" result="hardAlpha"/>
<feOffset dy="2"/>
<feGaussianBlur stdDeviation="2.5"/>
<feComposite in2="hardAlpha" operator="out"/>
<feColorMatrix type="matrix" values="0 0 0 0 0.0392157 0 0 0 0 0.396078 0 0 0 0 0.509804 0 0 0 0.5 0"/>
<feBlend mode="normal" in2="BackgroundImageFix" result="effect1_dropShadow_74_11"/>
<feBlend mode="normal" in="SourceGraphic" in2="effect1_dropShadow_74_11" result="shape"/>
</filter>
<filter id="filter1_d_74_11" x="0" y="0" width="250" height="250" filterUnits="userSpaceOnUse" color-interpolation-filters="sRGB">
<feFlood flood-opacity="0" result="BackgroundImageFix"/>
<feColorMatrix in="SourceAlpha" type="matrix" values="0 0 0 0 0 0 0 0 0 0 0 0 0 0 0 0 0 0 127 0" result="hardAlpha"/>
<feMorphology radius="2" operator="dilate" in="SourceAlpha" result="effect1_dropShadow_74_11"/>
<feOffset dy="2"/>
<feGaussianBlur stdDeviation="2.5"/>
<feComposite in2="hardAlpha" operator="out"/>
<feColorMatrix type="matrix" values="0 0 0 0 0.168627 0 0 0 0 0.839216 0 0 0 0 0.717647 0 0 0 0.5 0"/>
<feBlend mode="normal" in2="BackgroundImageFix" result="effect1_dropShadow_74_11"/>
<feBlend mode="normal" in="SourceGraphic" in2="effect1_dropShadow_74_11" result="shape"/>
</filter>
<filter id="filter2_d_74_11" x="14" y="18" width="250" height="250" filterUnits="userSpaceOnUse" color-interpolation-filters="sRGB">
<feFlood flood-opacity="0" result="BackgroundImageFix"/>
<feColorMatrix in="SourceAlpha" type="matrix" values="0 0 0 0 0 0 0 0 0 0 0 0 0 0 0 0 0 0 127 0" result="hardAlpha"/>
<feOffset dy="2"/>
<feGaussianBlur stdDeviation="3.5"/>
<feComposite in2="hardAlpha" operator="out"/>
<feColorMatrix type="matrix" values="0 0 0 0 0.0392157 0 0 0 0 0.396078 0 0 0 0 0.509804 0 0 0 0.5 0"/>
<feBlend mode="normal" in2="BackgroundImageFix" result="effect1_dropShadow_74_11"/>
<feBlend mode="normal" in="SourceGraphic" in2="effect1_dropShadow_74_11" result="shape"/>
</filter>
</defs>
</svg>
